#!OML:ASF E:\Style4\Style4.ASF
:FULLY-SPECIFIED
:DEGREES
1168
root 0.434826 17.4586 -1.63775 -3.6966 -2.1506 3.36135
lowerback 6.55183 2.65269 -0.888638
upperback 3.41265 3.47119 -0.785019
thorax -0.155703 1.73175 -0.535814
lowerneck 2.08611 -3.59167 -5.60769
upperneck 12.4198 -5.13995 3.95947
head 4.00067 -2.6425 2.16838
rclavicle 4.24157e-014 -9.54166e-015
rhumerus 49.1863 -7.28082 -41.251
rradius 62.2125
rwrist -5.72242
rhand -33.1703 32.2947
rfingers 7.12502
rthumb -6.37858 2.41071
lclavicle 4.24157e-014 -9.54166e-015
lhumerus 47.1128 1.24884 40.915
lradius 71.1015
lwrist 13.0553
lhand -25.5781 20.8115
lfingers 7.12502
lthumb 0.953218 50.7891
rfemur -14.6037 1.9426 13.3448
rtibia 39.8007
rfoot -20.0927 -11.3302
rtoes -14.0966
lfemur -11.9911 1.07208 -23.7088
ltibia 36.6235
lfoot -21.3908 7.28911
ltoes -13.3246
1169
root 0.435304 17.4559 -1.64044 -3.70582 -2.17172 3.33224
lowerback 6.58422 2.64597 -0.857707
upperback 3.42641 3.46368 -0.771591
thorax -0.158501 1.72823 -0.540006
lowerneck 2.10094 -3.59196 -5.59814
upperneck 12.4329 -5.13547 3.90239
head 3.99955 -2.64209 2.14735
rclavicle -2.54693e-014 -4.17448e-015
rhumerus 49.2107 -7.25143 -41.1706
rradius 62.1716
rwrist -5.63797
rhand -33.2278 31.9693
rfingers 7.12502
rthumb -6.43414 2.08708
lclavicle -2.54693e-014 -4.17448e-015
lhumerus 47.0131 1.18192 40.7619
lradius 71.1329
lwrist 12.972
lhand -25.5461 20.8045
lfingers 7.12502
lthumb 0.984182 50.782
rfemur -14.6512 1.93529 13.3712
rtibia 39.866
rfoot -20.1228 -11.3041
rtoes -14.1554
lfemur -12.0005 1.05155 -23.6642
ltibia 36.6387
lfoot -21.4536 7.14887
ltoes -12.5981
1170
root 0.434691 17.4525 -1.64404 -3.69149 -2.18996 3.38998
lowerback 6.60407 2.63805 -0.936294
upperback 3.43212 3.44835 -0.766901
thorax -0.168497 1.71954 -0.49132
lowerneck 2.08724 -3.58974 -5.61761
upperneck 12.4645 -5.12652 3.84789
head 4.01158 -2.6405 2.13227
rclavicle 6.60959e-015 2.18663e-015
rhumerus 49.2732 -7.20954 -41.08
rradius 62.1255
rwrist -5.64808
rhand -33.231 31.6845
rfingers 7.12502
rthumb -6.43723 1.80228
lclavicle 6.60959e-015 2.18663e-015
lhumerus 46.8888 1.14228 40.6502
lradius 71.1323
lwrist 12.9145
lhand -25.586 20.711
lfingers 7.12502
lthumb 0.945639 50.6887
rfemur -14.7227 1.94891 13.3081
rtibia 39.9389
rfoot -20.1474 -11.2912
rtoes -14.1181
lfemur -12.0376 1.04421 -23.7153
ltibia 36.6375
lfoot -21.468 7.03365
ltoes -12.1573
1171
root 0.433885 17.4513 -1.64683 -3.68903 -2.23935 3.48181
lowerback 6.62973 2.65247 -1.03064
upperback 3.44898 3.46167 -0.779107
thorax -0.17003 1.72511 -0.453036
lowerneck 2.04772 -3.58848 -5.68911
upperneck 12.4742 -5.12487 3.87522
head 4.02663 -2.64161 2.15422
rclavicle -2.44754e-014 1.86858e-014
rhumerus 49.3111 -7.20216 -40.9532
rradius 62.0583
rwrist -5.71255
rhand -33.1114 31.5339
rfingers 7.12502
rthumb -6.32176 1.64819
lclavicle -2.44754e-014 1.86858e-014
lhumerus 46.8231 1.09725 40.5413
lradius 71.1031
lwrist 12.9462
lhand -25.5175 20.8128
lfingers 7.12502
lthumb 1.01173 50.7901
rfemur -14.7801 1.96771 13.209
rtibia 40.0032
rfoot -20.1568 -11.2827
rtoes -14.1428
lfemur -12.0596 1.12029 -23.8205
ltibia 36.6485
lfoot -21.368 7.13517
ltoes -12.6889
1172
root 0.433952 17.4519 -1.64919 -3.68526 -2.27396 3.57425
lowerback 6.6552 2.65355 -1.12694
upperback 3.46196 3.457 -0.800437
thorax -0.174997 1.72174 -0.421909
lowerneck 2.03148 -3.56937 -5.74747
upperneck 12.4605 -5.10293 3.92969
head 4.0281 -2.63131 2.18416
rclavicle -1.49337e-014 2.0276e-014
rhumerus 49.3785 -7.17697 -40.8445
rradius 61.9731
rwrist -5.74615
rhand -33.0961 31.2895
rfingers 7.12502
rthumb -6.30703 1.40336
lclavicle -1.49337e-014 2.0276e-014
lhumerus 46.7898 1.10165 40.3046
lradius 71.0788
lwrist 13.1291
lhand -25.4438 20.9887
lfingers 7.12502
lthumb 1.08299 50.9657
rfemur -14.8377 1.97928 13.1026
rtibia 40.0551
rfoot -20.196 -11.2217
rtoes -14.0903
lfemur -12.0867 1.18846 -23.9338
ltibia 36.6663
lfoot -21.3294 7.31213
ltoes -13.5191
1173
root 0.434225 17.4515 -1.6532 -3.66771 -2.30181 3.57462
lowerback 6.68105 2.65523 -1.10071
upperback 3.47099 3.46013 -0.823447
thorax -0.177018 1.7238 -0.461308
lowerneck 2.04397 -3.56807 -5.6891
upperneck 12.4186 -5.10211 3.93299
head 4.00832 -2.62808 2.17478
rclavicle -2.43263e-014 6.36111e-015
rhumerus 49.4031 -7.20739 -40.816
rradius 61.8755
rwrist -5.7011
rhand -33.0992 31.3591
rfingers 7.12502
rthumb -6.30998 1.47312
lclavicle -2.43263e-014 6.36111e-015
lhumerus 46.7971 1.11639 40.1622
lradius 71.0446
lwrist 13.111
lhand -25.433 21.0239
lfingers 7.12502
lthumb 1.09338 51.0009
rfemur -14.8976 1.99067 13.0974
rtibia 40.0852
rfoot -20.2465 -11.0934
rtoes -13.753
lfemur -12.1344 1.22499 -23.9393
ltibia 36.6939
lfoot -21.3038 7.36226
ltoes -13.8122
1174
root 0.434433 17.452 -1.65661 -3.65945 -2.3248 3.54598
lowerback 6.71469 2.63961 -1.06769
upperback 3.47406 3.44067 -0.815201
thorax -0.191055 1.71439 -0.471521
lowerneck 2.06163 -3.54673 -5.7
upperneck 12.3779 -5.07838 3.98126
head 3.99129 -2.61522 2.1944
rclavicle -6.40832e-014 1.05356e-014
rhumerus 49.4661 -7.20601 -40.8164
rradius 61.7332
rwrist -5.69198
rhand -33.0903 31.6481
rfingers 7.12502
rthumb -6.30135 1.76183
lclavicle -6.40832e-014 1.05356e-014
lhumerus 46.7551 1.17922 40.1089
lradius 70.9965
lwrist 13.023
lhand -25.4538 20.9548
lfingers 7.12502
lthumb 1.07329 50.9318
rfemur -14.9266 2.01599 13.133
rtibia 40.0984
rfoot -20.2953 -11.0611
rtoes -13.808
lfemur -12.1612 1.22785 -23.9026
ltibia 36.7
lfoot -21.2562 7.29905
ltoes -13.321
1175
root 0.435175 17.4528 -1.65876 -3.65431 -2.36522 3.54422
lowerback 6.74124 2.63376 -1.03159
upperback 3.46732 3.43417 -0.84022
thorax -0.209036 1.71181 -0.518326
lowerneck 2.11346 -3.5403 -5.65704
upperneck 12.3413 -5.07256 3.98483
head 3.96625 -2.61072 2.18864
rclavicle 5.59082e-015 -8.15017e-015
rhumerus 49.5097 -7.21947 -40.8795
rradius 61.5985
rwrist -5.76459
rhand -32.9621 31.849
rfingers 7.12502
rthumb -6.17762 1.9591
lclavicle 5.59082e-015 -8.15017e-015
lhumerus 46.7129 1.21431 39.998
lradius 70.9926
lwrist 13.051
lhand -25.4792 20.8858
lfingers 7.12502
lthumb 1.04875 50.8629
rfemur -14.9551 2.04536 13.1364
rtibia 40.1058
rfoot -20.2585 -11.1218
rtoes -13.8089
lfemur -12.1663 1.2599 -23.8986
ltibia 36.686
lfoot -21.2584 7.33478
ltoes -13.4913
1176
root 0.436932 17.4533 -1.66007 -3.64816 -2.37796 3.60595
lowerback 6.75234 2.62634 -1.03948
upperback 3.45846 3.42305 -0.897073
thorax -0.221247 1.70666 -0.572231
lowerneck 2.19752 -3.53426 -5.61827
upperneck 12.2948 -5.07223 4.02503
head 3.93356 -2.60814 2.19652
rclavicle 6.1002e-014 -2.26615e-014
rhumerus 49.5148 -7.23551 -40.9501
rradius 61.5118
rwrist -5.83621
rhand -32.8718 31.7464
rfingers 7.12502
rthumb -6.0904 1.85394
lclavicle 6.1002e-014 -2.26615e-014
lhumerus 46.6678 1.20549 39.9069
lradius 70.9916
lwrist 13.0622
lhand -25.5191 20.7799
lfingers 7.12502
lthumb 1.01025 50.7573
rfemur -14.9718 2.047 13.06
rtibia 40.11
rfoot -20.2179 -11.148
rtoes -13.773
lfemur -12.1463 1.25495 -23.9709
ltibia 36.6417
lfoot -21.2888 7.35648
ltoes -13.4715
1177
root 0.437533 17.4521 -1.6624 -3.62706 -2.39266 3.63146
lowerback 6.76547 2.61772 -1.04565
upperback 3.44731 3.41061 -0.918991
thorax -0.23902 1.70057 -0.591396
lowerneck 2.21353 -3.54126 -5.57266
upperneck 12.2995 -5.0807 4.00063
head 3.92985 -2.61134 2.17975
rclavicle -5.37713e-014 9.93923e-015
rhumerus 49.54 -7.25583 -41.0312
rradius 61.4528
rwrist -5.8397
rhand -32.7501 31.5096
rfingers 7.12502
rthumb -5.97297 1.61383
lclavicle -5.37713e-014 9.93923e-015
lhumerus 46.6196 1.22473 39.8867
lradius 71.0266
lwrist 13.0441
lhand -25.4421 20.7921
lfingers 7.12502
lthumb 1.0846 50.7691
rfemur -15.006 2.03313 13.0287
rtibia 40.1101
rfoot -20.2262 -11.1403
rtoes -14.0263
lfemur -12.1425 1.21887 -23.9928
ltibia 36.5907
lfoot -21.2991 7.20283
ltoes -12.5534
1178
root 0.437572 17.4528 -1.66548 -3.61517 -2.41228 3.65771
lowerback 6.81126 2.60529 -1.07106
upperback 3.43232 3.39125 -0.936435
thorax -0.280205 1.69077 -0.596552
lowerneck 2.1881 -3.54858 -5.56677
upperneck 12.3208 -5.09232 4.02168
head 3.94363 -2.61596 2.18522
rclavicle -2.4699e-014 1.19271e-014
rhumerus 49.5701 -7.2758 -41.0987
rradius 61.408
rwrist -5.88906
rhand -32.6948 31.305
rfingers 7.12502
rthumb -5.91958 1.40769
lclavicle -2.4699e-014 1.19271e-014
lhumerus 46.5933 1.27032 39.8816
lradius 71.0194
lwrist 13.0189
lhand -25.3394 20.8237
lfingers 7.12502
lthumb 1.18373 50.8001
rfemur -15.0401 2.0486 13.0023
rtibia 40.1051
rfoot -20.1952 -11.1485
rtoes -13.9828
lfemur -12.1306 1.22636 -24.0155
ltibia 36.5281
lfoot -21.2707 7.13972
ltoes -12.1195
1179
root 0.437751 17.4557 -1.66701 -3.59782 -2.43589 3.63403
lowerback 6.81935 2.60693 -1.01297
upperback 3.43818 3.39663 -0.95757
thorax -0.274008 1.6943 -0.651122
lowerneck 2.20029 -3.57437 -5.58194
upperneck 12.2662 -5.13336 4.09122
head 3.92763 -2.63447 2.21065
rclavicle 2.85504e-014 -2.5842e-015
rhumerus 49.5968 -7.35945 -41.1711
rradius 61.3626
rwrist -5.89989
rhand -32.6575 31.1551
rfingers 7.12502
rthumb -5.88352 1.25676
lclavicle 2.85504e-014 -2.5842e-015
lhumerus 46.5895 1.28463 39.8059
lradius 71.1266
lwrist 13.0444
lhand -25.3194 20.924
lfingers 7.12502
lthumb 1.20312 50.9003
rfemur -15.0597 2.06535 13.0303
rtibia 40.0927
rfoot -20.2051 -11.112
rtoes -13.6469
lfemur -12.1283 1.24632 -23.9873
ltibia 36.4765
lfoot -21.2624 7.12906
ltoes -11.9976
1180
root 0.437075 17.459 -1.6678 -3.58277 -2.46272 3.66703
lowerback 6.82757 2.60778 -1.04274
upperback 3.42757 3.39547 -0.975672
thorax -0.290074 1.69353 -0.653764
lowerneck 2.28701 -3.58504 -5.53659
upperneck 12.1721 -5.14913 4.08093
head 3.87614 -2.64128 2.19935
rclavicle -3.58309e-014 1.13307e-014
rhumerus 49.5754 -7.3806 -41.2101
rradius 61.3738
rwrist -5.93261
rhand -32.5986 31.1056
rfingers 7.12502
rthumb -5.82669 1.20566
lclavicle -3.58309e-014 1.13307e-014
lhumerus 46.52 1.27818 39.7299
lradius 71.26
lwrist 13.0863
lhand -25.2127 21.0219
lfingers 7.12502
lthumb 1.3061 50.9977
rfemur -15.0775 2.07258 12.995
rtibia 40.0708
rfoot -20.2033 -11.0721
rtoes -13.6513
lfemur -12.1348 1.25968 -24.0254
ltibia 36.4384
lfoot -21.2069 7.22552
ltoes -12.3989
